<svg xmlns="http://www.w3.org/2000/svg" viewBox="0 0 512 512">
  <defs>
    <linearGradient id="bgGrad" x1="0%" y1="0%" x2="0%" y2="100%">
      <stop offset="0%" stop-color="#b3e5fc" />
      <stop offset="100%" stop-color="#81d4fa" />
    </linearGradient>

    <linearGradient id="bowlGrad" x1="0%" y1="0%" x2="0%" y2="100%">
      <stop offset="0%" stop-color="#ffffff" />
      <stop offset="100%" stop-color="#cbd5e1" />
    </linearGradient>

    <linearGradient id="pinGrad" x1="0%" y1="0%" x2="100%" y2="100%">
      <stop offset="0%" stop-color="#60a5fa" />
      <stop offset="100%" stop-color="#1d4ed8" />
    </linearGradient>

    <radialGradient id="shadow" cx="50%" cy="50%" r="50%">
      <stop offset="0%" stop-color="rgba(0,0,0,0.2)" />
      <stop offset="100%" stop-color="rgba(0,0,0,0)" />
    </radialGradient>
  </defs>

  <rect width="512" height="512" rx="115" fill="url(#bgGrad)" />

  <ellipse cx="256" cy="460" rx="150" ry="20" fill="url(#shadow)" />

  <path d="M 56 290 A 200 160 0 0 0 456 290 Z" fill="url(#bowlGrad)" />

  <ellipse cx="256" cy="290" rx="200" ry="60" fill="#e2e8f0" />

  <ellipse cx="256" cy="290" rx="200" ry="60" fill="none" stroke="#ffffff" stroke-width="10" />

  <ellipse cx="256" cy="305" rx="42" ry="14" fill="url(#shadow)" />

  <g>
    <path d="M 256 22 C 216 22 181 55 181 100 C 181 160 256 220 256 220 C 256 220 331 160 331 100 C 331 55 296 22 256 22 Z" fill="url(#pinGrad)" />
    
    <circle cx="256" cy="95" r="40" fill="#ffffff" />
    
    <text x="256" y="125" font-family="Arial, sans-serif" font-size="80" font-weight="bold" fill="#1d4ed8" text-anchor="middle">?</text>
  </g>
</svg>
