<svg xmlns="http://www.w3.org/2000/svg" viewBox="0 0 512 512" fill="none">
  <defs>
    <linearGradient id="bg" x1="96" y1="64" x2="416" y2="448" gradientUnits="userSpaceOnUse">
      <stop offset="0" stop-color="#FFC56A"></stop>
      <stop offset="1" stop-color="#FF8A1F"></stop>
    </linearGradient>

    <linearGradient id="pin" x1="256" y1="86" x2="256" y2="270" gradientUnits="userSpaceOnUse">
      <stop offset="0" stop-color="#FF5A2A"></stop>
      <stop offset="1" stop-color="#E43A00"></stop>
    </linearGradient>

    <filter id="shadow" x="88" y="400" width="336" height="60" filterUnits="userSpaceOnUse" color-interpolation-filters="sRGB">
      <feGaussianBlur stdDeviation="10"></feGaussianBlur>
    </filter>
  </defs>

  <!-- background -->
  <rect width="512" height="512" rx="110" fill="url(#bg)"></rect>

  <!-- pin -->
  <path d="M256 86C214.58 86 181 119.58 181 161C181 217.5 256 270 256 270C256 270 331 217.5 331 161C331 119.58 297.42 86 256 86Z" fill="url(#pin)"></path>

  <!-- pin center -->
  <circle cx="256" cy="155" r="39" fill="#FFF7F2"></circle>

  <!-- question mark -->
  <path d="M248.8 169V163.4C248.8 157.2 251.8 153.7 257.6 150.2C262.7 147.1 265.1 145 265.1 141.2C265.1 136.6 261.7 133.7 256.5 133.7C251.3 133.7 247.6 136.7 246.6 142H236.8C238.2 130.8 246.5 124.7 256.8 124.7C268.8 124.7 275.5 131.9 275.5 140.8C275.5 148.5 271.1 152.6 264.6 156.3C259.8 159.1 258.6 160.9 258.6 164.8V169H248.8ZM253.5 188.7C249.7 188.7 246.9 185.9 246.9 182.2C246.9 178.5 249.7 175.7 253.5 175.7C257.2 175.7 260 178.5 260 182.2C260 185.9 257.2 188.7 253.5 188.7Z" fill="#E85618"></path>

  <!-- bowl top -->
  <ellipse cx="256" cy="320" rx="186" ry="50" fill="#F8F8F8"></ellipse>
  <ellipse cx="256" cy="317" rx="162" ry="35" fill="#D4D8DE"></ellipse>

  <!-- bowl body -->
  <path d="M88 320C97 398 163 456 256 456C349 456 415 398 424 320C380 333 322 340 256 340C190 340 132 333 88 320Z" fill="#E4E7EC"></path>

  <!-- bowl front shade -->
  <path d="M112 356C140 415 191 445 256 445C321 445 372 415 400 356C359 372 311 380 256 380C201 380 153 372 112 356Z" fill="#CCD1D8"></path>

  <!-- soft bottom shadow -->
  <g filter="url(#shadow)">
    <ellipse cx="256" cy="448" rx="112" ry="13" fill="#B95518" fill-opacity=".28"></ellipse>
  </g>
</svg>