<svg xmlns="http://www.w3.org/2000/svg" viewBox="0 0 1024 500">
  <defs>
    <linearGradient id="fgBg" x1="0" y1="0" x2="1024" y2="500" gradientUnits="userSpaceOnUse">
      <stop offset="0" stop-color="#FFC56A"/>
      <stop offset="1" stop-color="#FF6E0F"/>
    </linearGradient>
    <linearGradient id="fgIcon" x1="0" y1="0" x2="280" y2="280" gradientUnits="userSpaceOnUse">
      <stop offset="0" stop-color="#FFEAD0"/>
      <stop offset="1" stop-color="#FFFFFF"/>
    </linearGradient>
    <linearGradient id="fgPin" x1="0" y1="0" x2="0" y2="120" gradientUnits="userSpaceOnUse">
      <stop offset="0" stop-color="#FF5A2A"/>
      <stop offset="1" stop-color="#E43A00"/>
    </linearGradient>
  </defs>
  <rect width="1024" height="500" fill="url(#fgBg)"/>

  <g transform="translate(80,110)">
    <rect width="280" height="280" rx="60" fill="url(#fgIcon)"/>
    <g transform="translate(28,28) scale(0.44)">
      <path d="M256 86C214.58 86 181 119.58 181 161C181 217.5 256 270 256 270C256 270 331 217.5 331 161C331 119.58 297.42 86 256 86Z" fill="url(#fgPin)"/>
      <circle cx="256" cy="155" r="39" fill="#FFF7F2"/>
      <path d="M248.8 169V163.4C248.8 157.2 251.8 153.7 257.6 150.2C262.7 147.1 265.1 145 265.1 141.2C265.1 136.6 261.7 133.7 256.5 133.7C251.3 133.7 247.6 136.7 246.6 142H236.8C238.2 130.8 246.5 124.7 256.8 124.7C268.8 124.7 275.5 131.9 275.5 140.8C275.5 148.5 271.1 152.6 264.6 156.3C259.8 159.1 258.6 160.9 258.6 164.8V169H248.8ZM253.5 188.7C249.7 188.7 246.9 185.9 246.9 182.2C246.9 178.5 249.7 175.7 253.5 175.7C257.2 175.7 260 178.5 260 182.2C260 185.9 257.2 188.7 253.5 188.7Z" fill="#E85618"/>
      <ellipse cx="256" cy="320" rx="186" ry="50" fill="#F8F8F8"/>
      <ellipse cx="256" cy="317" rx="162" ry="35" fill="#D4D8DE"/>
      <path d="M88 320C97 398 163 456 256 456C349 456 415 398 424 320C380 333 322 340 256 340C190 340 132 333 88 320Z" fill="#E4E7EC"/>
      <path d="M112 356C140 415 191 445 256 445C321 445 372 415 400 356C359 372 311 380 256 380C201 380 153 372 112 356Z" fill="#CCD1D8"/>
    </g>
  </g>

  <text x="420" y="190" font-family="'Noto Sans KR', Inter, sans-serif" font-size="76" font-weight="900" fill="#FFF7EC">음식만안와요</text>
  <text x="420" y="250" font-family="'Noto Sans KR', Inter, sans-serif" font-size="32" font-weight="700" fill="#FFE4C8">배달비와 칼로리를 아끼는</text>
  <text x="420" y="296" font-family="'Noto Sans KR', Inter, sans-serif" font-size="32" font-weight="700" fill="#FFE4C8">가짜 배달 데모 앱</text>

  <g transform="translate(420,340)">
    <rect width="100" height="34" rx="17" fill="rgba(255,255,255,0.22)"/>
    <text x="50" y="22" text-anchor="middle" font-family="Inter, sans-serif" font-size="16" font-weight="800" fill="#FFFFFF">🍱 메뉴 17곳</text>
  </g>
  <g transform="translate(530,340)">
    <rect width="110" height="34" rx="17" fill="rgba(255,255,255,0.22)"/>
    <text x="55" y="22" text-anchor="middle" font-family="Inter, sans-serif" font-size="16" font-weight="800" fill="#FFFFFF">🐇 토끼/🐢 거북이</text>
  </g>
  <g transform="translate(650,340)">
    <rect width="90" height="34" rx="17" fill="rgba(255,255,255,0.22)"/>
    <text x="45" y="22" text-anchor="middle" font-family="Inter, sans-serif" font-size="16" font-weight="800" fill="#FFFFFF">🔥 칼로리 절약</text>
  </g>
  <g transform="translate(750,340)">
    <rect width="90" height="34" rx="17" fill="rgba(255,255,255,0.22)"/>
    <text x="45" y="22" text-anchor="middle" font-family="Inter, sans-serif" font-size="16" font-weight="800" fill="#FFFFFF">🌐 KO / EN</text>
  </g>
</svg>
